<?xml version="1.0" encoding="UTF-8"?>
<!DOCTYPE svg PUBLIC "-//W3C//DTD SVG 1.1//EN" "http://www.w3.org/Graphics/SVG/1.1/DTD/svg11.dtd">
<!-- Creator: CorelDRAW X8 -->
<svg xmlns="http://www.w3.org/2000/svg" xml:space="preserve" width="0.031in" height="0.916992in" version="1.1" style="shape-rendering:geometricPrecision; text-rendering:geometricPrecision; image-rendering:optimizeQuality; fill-rule:evenodd; clip-rule:evenodd"
viewBox="0 0 31 917"
 xmlns:xlink="http://www.w3.org/1999/xlink">
 <defs>
  <style type="text/css">
   <![CDATA[
    .fil0 {fill:#E24B36}
   ]]>
  </style>
 </defs>
 <g id="Layer_x0020_1">
  <metadata id="CorelCorpID_0Corel-Layer"/>
  <g id="_606004320">
   <g id="Design">
    <g id="Home">
     <path id="Path-6" class="fil0" d="M0 16c0,-9 7,-16 15,-16 9,0 16,7 16,16l0 10c0,9 -7,16 -16,16 -8,0 -15,-7 -15,-16l0 -10zm0 219c0,-9 7,-16 15,-16 9,0 16,7 16,16l0 10c0,9 -7,16 -16,16 -8,0 -15,-7 -15,-16l0 -10zm0 219c0,-9 7,-16 15,-16 9,0 16,7 16,16l0 10c0,9 -7,16 -16,16 -8,0 -15,-7 -15,-16l0 -10zm0 218c0,-8 7,-15 15,-15 9,0 16,7 16,15l0 11c0,8 -7,15 -16,15 -8,0 -15,-7 -15,-15l0 -11zm0 219c0,-9 7,-16 15,-16 9,0 16,7 16,16l0 10c0,9 -7,16 -16,16 -8,0 -15,-7 -15,-16l0 -10z"/>
    </g>
   </g>
  </g>
 </g>
</svg>
